<svg aria-hidden="true" style="position: absolute; width: 0; height: 0; overflow: hidden;" version="1.1" xmlns="http://www.w3.org/2000/svg" xmlns:xlink="http://www.w3.org/1999/xlink">
<defs>
<symbol id="icon-menu-btn" viewBox="0 0 32 32">
<path  d="M1.92 15.36h28.16c0.353 0 0.64 0.287 0.64 0.64s-0.287 0.64-0.64 0.64h-28.16c-0.353 0-0.64-0.287-0.64-0.64s0.287-0.64 0.64-0.64z"></path>
<path  d="M1.92 23.68h28.16c0.353 0 0.64 0.287 0.64 0.64s-0.287 0.64-0.64 0.64h-28.16c-0.353 0-0.64-0.287-0.64-0.64s0.287-0.64 0.64-0.64z"></path>
<path  d="M1.92 7.040h28.16c0.353 0 0.64 0.287 0.64 0.64s-0.287 0.64-0.64 0.64h-28.16c-0.353 0-0.64-0.287-0.64-0.64s0.287-0.64 0.64-0.64z"></path>
</symbol>
<symbol id="icon-rectangle-keys" viewBox="0 0 32 32">
<path d="M0 0h32v32h-32v-32z"></path>
</symbol>
<symbol id="icon-lock" viewBox="0 0 32 32">
<path d="M16 17.778c-1.659 0-2.963 1.304-2.963 2.963 0 0.948 0.474 1.778 1.185 2.37v2.37c0 0.948 0.83 1.778 1.778 1.778s1.778-0.83 1.778-1.778v-2.37c0.711-0.593 1.185-1.422 1.185-2.37-0-1.659-1.304-2.963-2.963-2.963zM16.593 22.4v3.081c0 0.356-0.237 0.593-0.593 0.593s-0.593-0.237-0.593-0.593v-3.081c-0.711-0.237-1.185-0.948-1.185-1.659 0-0.948 0.83-1.778 1.778-1.778s1.778 0.83 1.778 1.778c-0 0.83-0.474 1.422-1.185 1.659z"></path>
<path d="M24.889 13.037v-4.148c0-4.859-4.030-8.889-8.889-8.889s-8.889 4.030-8.889 8.889v4.148c-2.015 0-3.556 1.541-3.556 3.556v11.852c0 2.015 1.541 3.556 3.556 3.556h17.778c2.015 0 3.556-1.541 3.556-3.556v-11.852c0-1.896-1.541-3.556-3.556-3.556zM8.296 8.889c0-4.267 3.437-7.704 7.704-7.704s7.704 3.437 7.704 7.704v4.148h-1.185v-4.148c0-3.556-2.963-6.519-6.519-6.519s-6.518 2.963-6.518 6.519v4.148h-1.185v-4.148zM21.333 8.889v4.148h-10.667v-4.148c0-2.963 2.37-5.333 5.333-5.333s5.333 2.37 5.333 5.333zM27.259 28.444c0 1.304-1.067 2.37-2.37 2.37h-17.778c-1.304 0-2.37-1.067-2.37-2.37v-11.852c0-1.304 1.067-2.37 2.37-2.37h17.778c1.304 0 2.37 1.067 2.37 2.37v11.852z"></path>
</symbol>
<symbol id="icon-shield" viewBox="0 0 32 32">
<path d="M15.968 30.080l-0.256-0.096c-6.72-2.176-11.2-8.384-11.2-15.456v-9.344l11.424-3.296 11.456 3.296v9.344c0 7.072-4.48 13.28-11.168 15.456l-0.256 0.096zM6.112 6.432v8.128c0 6.272 3.936 11.808 9.856 13.856 5.888-2.048 9.824-7.584 9.824-13.856v-8.128l-9.856-2.848-9.824 2.848z"></path>
</symbol>
</defs>
</svg>
